HIERARCHY
ROOT Hips
{
	OFFSET 0.00 0.00 0.00
	CHANNELS 6 Xposition Yposition Zposition Xrotation Yrotation Zrotation
	JOINT LeftUpLeg
	{
		OFFSET 3.76682 0.00000 0.00000
		CHANNELS 3 Xrotation Yrotation Zrotation
		JOINT LeftLeg
		{
			OFFSET 0.00000 -17.03178 0.00000
			CHANNELS 3 Xrotation Yrotation Zrotation
			JOINT LeftFoot
			{
				OFFSET 0.00000 -15.72190 0.00000
				CHANNELS 3 Xrotation Yrotation Zrotation
				JOINT LeftToeBase
				{
					OFFSET 0.00000 -1.61281 6.01911
					CHANNELS 3 Xrotation Yrotation Zrotation
					End Site
					{
						OFFSET 0.00000 0.00000 2.95275
					}
				}
			}
		}
	}
	JOINT RightUpLeg
	{
		OFFSET -3.76682 0.00000 0.00000
		CHANNELS 3 Xrotation Yrotation Zrotation
		JOINT RightLeg
		{
			OFFSET 0.00000 -17.03178 0.00000
			CHANNELS 3 Xrotation Yrotation Zrotation
			JOINT RightFoot
			{
				OFFSET 0.00000 -15.72190 0.00000
				CHANNELS 3 Xrotation Yrotation Zrotation
				JOINT RightToeBase
				{
					OFFSET 0.00000 -1.61281 6.01911
					CHANNELS 3 Xrotation Yrotation Zrotation
					End Site
					{
						OFFSET 0.00000 0.00000 2.95275
					}
				}
			}
		}
	}
	JOINT Spine
	{
		OFFSET 0.00000 0.03937 0.00000
		CHANNELS 3 Xrotation Yrotation Zrotation
		JOINT Spine1
		{
			OFFSET 0.00000 6.63648 0.00000
			CHANNELS 3 Xrotation Yrotation Zrotation
			JOINT Neck
			{
				OFFSET 0.00000 10.89313 0.00000
				CHANNELS 3 Xrotation Yrotation Zrotation
				JOINT Head
				{
					OFFSET 0.00000 5.84841 0.00000
					CHANNELS 3 Xrotation Yrotation Zrotation
					End Site
					{
						OFFSET 0.00000 4.52755 0.00000
					}
				}
			}
			JOINT LeftShoulder
			{
				OFFSET 0.00000 10.89313 0.00000
				CHANNELS 3 Xrotation Yrotation Zrotation
				JOINT LeftArm
				{
					OFFSET 7.21266 -0.00003 0.00000
					CHANNELS 3 Xrotation Yrotation Zrotation
					JOINT LeftForeArm
					{
						OFFSET 9.64829 -0.00004 0.00000
						CHANNELS 3 Xrotation Yrotation Zrotation
						JOINT LeftHand
						{
							OFFSET 9.06793 -0.00003 0.00000
							CHANNELS 3 Xrotation Yrotation Zrotation
							JOINT LeftHandThumb
							{
								OFFSET 0.00000 0.00000 0.00000
								CHANNELS 3 Xrotation Yrotation Zrotation
								End Site
								{
									OFFSET 0.00000 0.00000 3.93700
								}
							}
							JOINT L_Wrist_End
							{
								OFFSET 3.93700 -0.00001 0.00000
								CHANNELS 3 Xrotation Yrotation Zrotation
							}
						}
					}
				}
			}
			JOINT RightShoulder
			{
				OFFSET 0.00000 10.89313 0.00000
				CHANNELS 3 Xrotation Yrotation Zrotation
				JOINT RightArm
				{
					OFFSET -7.21266 -0.00003 0.00000
					CHANNELS 3 Xrotation Yrotation Zrotation
					JOINT RightForeArm
					{
						OFFSET -9.64829 -0.00004 0.00000
						CHANNELS 3 Xrotation Yrotation Zrotation
						JOINT RightHand
						{
							OFFSET -9.06793 -0.00003 0.00000
							CHANNELS 3 Xrotation Yrotation Zrotation
							JOINT RightHandThumb
							{
								OFFSET 0.00000 0.00000 0.00000
								CHANNELS 3 Xrotation Yrotation Zrotation
								End Site
								{
									OFFSET 0.00000 0.00000 3.93700
								}
							}
							JOINT R_Wrist_End
							{
								OFFSET -5.39369 -0.00002 0.00000
								CHANNELS 3 Xrotation Yrotation Zrotation
							}
						}
					}
				}
			}
		}
	}
}
MOTION
Frames: 16
Frame Time: 0.008333
 35.0120 37.4897 19.5831 -173.7991 -67.8630 -164.8146 -47.1097 -4.1061 0.4071 100.5624 -0.0000 0.0000 -1.2318 0.0033 -7.0700 -13.3175 -0.0000 0.0000 -0.0393 4.0987 1.4219 25.5497 -0.0000 0.0000 12.8952 4.3192 -4.9178 -16.3326 -0.0000 0.0000 -7.3104 7.1201 4.6923 16.3919 1.7851 -13.4173 28.8344 5.2273 8.1754 -31.1901 -0.9615 -16.3261 8.2133 -1.9060 7.4841 20.0468 -32.0546 -51.4294 -0.0001 -20.5842 -0.0000 18.4049 1.3274 -20.7975 -0.0000 0.0000 0.0000 -0.0000 0.0000 0.0000 2.7982 8.9044 -2.7089 1.5107 17.5244 61.9399 -179.9890 88.9057 179.9888 -11.2732 -28.4050 -11.3173 -0.0000 0.0000 -0.0000 -0.0000 0.0000 -0.0000
 34.7640 37.6924 19.5091 -173.8609 -67.0603 -164.6402 -47.1558 -3.8181 -0.0995 99.5574 -0.0000 0.0000 -0.7888 -0.1197 -6.7193 -13.8547 -0.0000 0.0000 -0.5257 3.5176 0.8992 26.8231 -0.0000 0.0000 13.2304 4.1798 -4.7431 -14.8367 -0.0000 -0.0000 -7.0756 7.3679 4.7582 16.5265 1.8251 -13.8768 29.5476 5.5277 8.2507 -32.4803 -0.7628 -16.6559 8.9641 -1.7223 7.5540 20.4356 -31.9798 -50.9383 -0.0001 -19.6314 -0.0000 17.9382 1.3052 -22.3495 -0.0000 -0.0000 -0.0000 -0.0000 -0.0000 -0.0000 2.9698 9.1886 -2.4444 1.2883 17.1830 61.5449 -179.9964 86.6137 179.9962 -13.1228 -26.8965 -11.2169 -0.0000 0.0000 -0.0000 -0.0000 0.0000 -0.0000
 34.5278 37.8660 19.4117 -174.0715 -66.2606 -164.8777 -47.2407 -3.6774 -0.2782 98.6726 -0.0000 0.0000 -0.4401 -0.2339 -6.7295 -14.0436 0.0000 -0.0000 -1.0356 2.9914 0.7641 27.8485 -0.0000 0.0000 12.8759 3.4446 -5.4214 -14.7327 -0.0000 0.0000 -6.9400 7.5424 4.7555 16.6606 1.9690 -13.9218 30.1530 6.1042 8.0998 -33.6127 -0.8671 -16.9409 9.4472 -1.6482 7.5642 21.2612 -32.2834 -50.3686 -0.0001 -18.4138 -0.0000 17.7140 0.8109 -23.4980 0.0000 0.0000 -0.0000 0.0000 0.0000 -0.0000 3.2333 9.5709 -2.2402 0.9294 16.6695 61.2003 -179.9978 84.4142 179.9976 -15.1999 -25.6234 -10.8909 0.0000 0.0000 -0.0000 0.0000 0.0000 -0.0000
 34.2528 38.0237 19.3381 -173.8305 -65.5156 -164.3005 -46.9941 -3.3007 -0.9239 97.6547 0.0000 0.0000 -0.0580 -0.1996 -7.0248 -14.1794 0.0000 -0.0000 -1.1553 2.2728 0.0892 28.3905 0.0000 0.0000 12.0272 2.6913 -5.5875 -14.4105 0.0000 0.0000 -6.6570 7.6941 4.6056 16.7709 1.9773 -14.2250 30.8567 6.2985 8.0602 -34.7028 -0.5337 -17.1205 10.1540 -1.4167 7.4095 21.8250 -32.0597 -49.7135 -0.0001 -18.1593 -0.0000 17.8324 1.1596 -24.8456 0.0000 -0.0000 0.0000 0.0000 -0.0000 0.0000 3.3822 9.8005 -1.8809 0.6268 16.5675 60.7197 -179.9984 82.5536 179.9982 -17.1405 -24.7011 -10.8084 0.0000 -0.0000 0.0000 0.0000 -0.0000 0.0000
 34.0050 38.1354 19.2449 -173.9924 -64.8907 -164.5167 -46.9765 -3.2313 -1.1751 96.8069 -0.0000 0.0000 0.1522 -0.1563 -7.2827 -14.2859 -0.0000 -0.0000 -1.4832 1.3530 -0.1179 28.5726 0.0000 0.0000 11.6659 1.9099 -6.2281 -14.4990 -0.0000 0.0000 -6.5931 7.7444 4.6160 16.8609 2.0142 -14.2421 31.2475 6.9061 7.7919 -35.3249 -0.6619 -17.2111 10.3392 -1.3631 7.2933 23.1350 -32.3316 -48.9448 -0.0001 -17.4137 -0.0000 18.1979 0.8330 -25.8662 -0.0000 0.0000 -0.0000 -0.0000 0.0000 -0.0000 3.3946 10.0836 -1.5598 0.4168 16.4217 60.2573 -179.9987 80.8271 179.9985 -18.7234 -23.9627 -10.7117 -0.0000 -0.0000 -0.0000 -0.0000 -0.0000 -0.0000
 33.7537 38.2153 19.1319 -173.8749 -64.3298 -164.5810 -46.7887 -3.2542 -1.3353 96.0094 0.0000 0.0000 0.1239 -0.0629 -7.5104 -13.9626 -0.0000 -0.0000 -1.3938 1.0215 -0.0645 28.0359 0.0000 0.0000 10.9734 1.2195 -6.1552 -13.1961 -0.0000 0.0000 -6.5897 7.7261 4.6067 17.0763 2.0382 -14.1238 31.4593 6.8225 7.6760 -35.4207 -0.2384 -17.1848 10.3122 -1.4690 7.1536 24.3149 -32.2547 -48.4148 -0.0001 -16.7644 -0.0000 18.6898 0.7374 -26.8966 0.0000 0.0000 0.0000 0.0000 0.0000 0.0000 3.2586 10.3081 -1.2476 0.2093 16.3901 59.9158 -179.9989 79.3523 179.9987 -19.5221 -23.5933 -10.6614 0.0000 0.0000 0.0000 0.0000 0.0000 0.0000
 33.4823 38.2644 19.0319 -173.7652 -63.7884 -164.4998 -46.5046 -3.1691 -1.6768 95.1789 -0.0000 0.0000 -0.0532 0.1179 -7.7400 -13.9341 -0.0000 0.0000 -1.2906 0.2712 -0.3030 27.3187 -0.0000 0.0000 10.2678 1.6011 -6.5392 -13.2079 0.0000 0.0000 -6.7179 7.6638 4.6122 17.3942 1.9860 -14.1587 31.4460 6.7309 7.5971 -35.0068 0.2125 -17.1748 10.4387 -1.3207 7.1063 25.4309 -32.5279 -47.7882 -0.0001 -16.2893 -0.0000 19.1359 0.6695 -27.6061 0.0000 0.0000 -0.0000 0.0000 0.0000 -0.0000 2.7110 10.4216 -0.9693 0.2347 16.6775 59.6835 -179.9990 78.2637 179.9988 -19.8632 -23.4143 -10.6647 -0.0000 0.0000 -0.0000 -0.0000 0.0000 -0.0000
 33.1996 38.2757 18.9275 -173.7046 -63.3107 -164.4612 -46.2323 -3.0863 -2.0378 94.4216 -0.0000 0.0000 -0.2779 0.3393 -7.8777 -13.9482 -0.0000 0.0000 -1.1718 -0.5132 -0.5584 26.3940 0.0000 -0.0000 9.5226 2.5256 -6.9535 -13.4257 -0.0000 -0.0000 -6.9120 7.5804 4.6190 17.6889 1.9200 -14.1918 31.2467 6.8076 7.4211 -34.2472 0.4606 -17.0262 10.3982 -1.2310 7.1600 26.6233 -32.6610 -47.3197 -0.0001 -16.0747 -0.0000 19.7708 0.7291 -28.1793 -0.0000 -0.0000 -0.0000 -0.0000 -0.0000 -0.0000 2.3529 10.5103 -0.7305 0.1050 16.9703 59.5141 -179.9991 77.3145 179.9988 -19.7422 -23.4901 -10.7251 -0.0000 -0.0000 -0.0000 -0.0000 -0.0000 -0.0000
 32.9241 38.2511 18.8195 -173.7387 -62.9313 -164.6319 -46.0877 -3.1197 -2.3330 93.7972 -0.0000 0.0000 -0.4872 0.5669 -7.9565 -14.0001 0.0000 0.0000 -1.1538 -1.1603 -0.6640 25.4305 -0.0000 0.0000 8.7073 3.5633 -7.0533 -13.6701 0.0000 -0.0000 -7.0342 7.4718 4.6411 17.7771 1.8514 -14.1115 30.8914 6.9760 7.1499 -33.2160 0.5470 -16.7748 10.3952 -1.0287 7.3425 27.9314 -33.2508 -46.8049 -0.0001 -15.8158 -0.0000 19.9436 0.8991 -28.0266 0.0000 -0.0000 0.0000 0.0000 -0.0000 0.0000 2.0426 10.5200 -0.6291 -0.0745 17.3533 59.5162 -179.9991 76.5698 179.9989 -19.3796 -23.7576 -10.7760 0.0000 0.0000 0.0000 0.0000 0.0000 0.0000
 32.6340 38.2073 18.7042 -173.6329 -62.5967 -164.7010 -45.8491 -3.1895 -2.6464 93.2140 -0.0000 0.0000 -0.7219 0.8217 -8.0722 -13.9807 -0.0000 0.0000 -1.0270 -1.6599 -0.6636 24.3474 -0.0000 0.0000 7.9055 4.2533 -7.4795 -13.7838 -0.0000 0.0000 -7.2839 7.3052 4.6917 18.0573 1.7638 -13.9972 30.4462 7.0283 6.9087 -32.1203 0.7001 -16.5328 10.1927 -0.9307 7.5575 28.9730 -33.3261 -46.6038 -0.0001 -15.8922 -0.0000 20.5174 1.4076 -28.1692 -0.0000 0.0000 0.0000 -0.0000 0.0000 0.0000 1.7662 10.4996 -0.6981 -0.3644 17.7735 59.7142 -179.9992 76.0499 179.9989 -18.7298 -24.1894 -10.7203 0.0000 0.0000 0.0000 0.0000 0.0000 0.0000
 32.3335 38.1366 18.5929 -173.4538 -62.3261 -164.7234 -45.5919 -3.3098 -3.0162 92.6872 -0.0000 0.0000 -0.9274 1.1551 -8.1258 -13.8955 0.0000 -0.0000 -0.8396 -1.9873 -0.6345 23.1915 -0.0000 0.0000 7.3552 4.3880 -7.6311 -14.0228 -0.0000 -0.0000 -7.5356 7.1043 4.7577 18.3275 1.6562 -13.8398 29.9627 6.9966 6.7218 -30.9964 0.9002 -16.3790 9.9876 -0.7983 7.7323 29.9467 -33.2707 -46.3638 -0.0001 -16.2130 -0.0000 21.1123 1.9557 -28.2837 -0.0000 -0.0000 -0.0000 -0.0000 -0.0000 -0.0000 1.4839 10.3936 -0.8651 -0.6705 18.3209 59.9868 -179.9992 75.7603 179.9989 -18.0739 -24.6753 -10.6728 -0.0000 -0.0000 0.0000 -0.0000 -0.0000 0.0000
 32.0349 38.0337 18.4815 -173.3610 -62.0740 -164.8633 -45.3973 -3.4704 -3.3655 92.2384 -0.0000 0.0000 -1.0795 1.5376 -8.2093 -13.7494 -0.0000 -0.0000 -0.6877 -2.0460 -0.5451 22.0232 0.0000 0.0000 7.4006 3.9023 -7.2633 -14.0179 0.0000 0.0000 -7.7448 6.9156 4.8408 18.4796 1.5594 -13.6493 29.5203 7.0151 6.5307 -30.0142 1.0619 -16.2361 9.7879 -0.5809 7.9026 30.6310 -33.1915 -46.2202 -0.0001 -16.4535 -0.0000 21.6571 2.4453 -28.2010 0.0000 -0.0000 0.0000 0.0000 -0.0000 0.0000 1.2768 10.2162 -1.0774 -1.0587 18.9087 60.3293 -179.9992 75.6427 179.9989 -17.5645 -25.1407 -10.5591 -0.0000 -0.0000 0.0000 -0.0000 -0.0000 0.0000
 31.7415 37.9052 18.3674 -173.4171 -61.8239 -165.1820 -45.2954 -3.6393 -3.6383 91.8373 -0.0000 0.0000 -1.1265 1.8895 -8.2657 -13.7271 0.0000 0.0000 -0.5445 -1.6133 -0.3526 20.8007 0.0000 0.0000 7.7294 2.6867 -6.4991 -14.0001 -0.0000 -0.0000 -8.0076 6.7505 4.9707 18.6176 1.4960 -13.4468 29.1526 7.0642 6.3473 -29.2511 1.1456 -16.1024 9.6823 -0.3863 8.0780 30.9902 -32.8906 -46.1577 -0.0001 -16.8299 -0.0000 22.2156 2.8078 -28.1421 -0.0000 -0.0000 -0.0000 -0.0000 -0.0000 -0.0000 1.1901 10.0280 -1.3288 -1.5611 19.4775 60.6817 -179.9992 75.6321 179.9989 -17.4284 -25.5547 -10.4776 0.0000 -0.0000 -0.0000 0.0000 -0.0000 -0.0000
 31.4423 37.7515 18.2627 -173.5618 -61.5479 -165.5287 -45.2583 -3.7613 -3.9295 91.4892 -0.0000 0.0000 -1.1192 2.2178 -8.4982 -13.6733 -0.0000 0.0000 -0.5521 -1.7457 -0.3569 19.8792 -0.0000 -0.0000 8.1380 1.8191 -5.8774 -14.0192 -0.0000 -0.0000 -8.3139 6.6146 5.0951 18.7956 1.4678 -13.2554 28.6918 7.0094 6.1912 -28.4627 1.2246 -15.9966 9.5734 -0.1539 8.2473 31.1997 -32.5676 -46.0841 -0.0001 -17.2788 -0.0000 22.7962 3.1273 -27.9631 -0.0000 0.0000 -0.0000 -0.0000 0.0000 -0.0000 1.2018 9.8062 -1.6459 -2.1838 19.9765 61.0674 -179.9992 75.6796 179.9989 -17.1811 -25.9769 -10.3268 0.0000 -0.0000 -0.0000 0.0000 -0.0000 -0.0000
 31.1443 37.5719 18.1670 -173.7233 -61.2709 -165.8804 -45.2766 -3.8535 -4.2176 91.1993 -0.0000 0.0000 -1.1195 2.5278 -8.7343 -13.6979 -0.0000 -0.0000 -0.5367 -1.7821 -0.4041 18.9599 0.0000 -0.0000 8.8637 0.6692 -5.1569 -14.1258 -0.0000 -0.0000 -8.6015 6.4725 5.2460 18.9086 1.4210 -13.0810 28.4274 7.1705 5.9666 -28.0273 1.1747 -15.8995 9.5961 0.0756 8.3894 31.0552 -31.9738 -46.1346 -0.0001 -17.8369 -0.0000 23.3451 3.3872 -27.7979 -0.0000 0.0000 -0.0000 -0.0000 0.0000 -0.0000 1.2373 9.7326 -1.9646 -2.7378 20.3455 61.3870 -179.9992 75.7312 179.9989 -17.2597 -26.2180 -10.3344 0.0000 -0.0000 0.0000 0.0000 -0.0000 0.0000
 30.8482 37.3651 18.0649 -173.8355 -60.9536 -166.2304 -45.2909 -3.9266 -4.3986 90.9745 -0.0000 0.0000 -1.2227 2.7699 -8.8196 -13.5713 -0.0000 -0.0000 -0.4708 -1.8042 -0.4174 18.1142 -0.0000 0.0000 9.7863 -0.3046 -4.9558 -13.5505 0.0000 0.0000 -8.9676 6.3490 5.4499 19.1662 1.4065 -12.9130 28.1904 7.2835 5.7856 -27.7354 1.1971 -15.7898 9.6211 0.2993 8.5465 30.5725 -31.1347 -46.2715 -0.0001 -18.4403 -0.0000 23.8517 3.4178 -27.7597 0.0000 0.0000 0.0000 0.0000 0.0000 0.0000 1.2566 9.7741 -2.2782 -3.2316 20.4950 61.6167 -179.9992 75.6932 179.9989 -17.3219 -26.4026 -10.2535 -0.0000 0.0000 0.0000 -0.0000 0.0000 0.0000
